{
  "accessors": [
    {
      "bufferView": 2,
      "componentType": 5126,
      "count": 323,
      "max": [
        1753.6248779296875,
        1753.6248779296875,
        1753.6248779296875
      ],
      "min": [
        -1753.6248779296875,
        -1753.6248779296875,
        -1753.6248779296875
      ],
      "type": "VEC3"
    },
    {
      "bufferView": 2,
      "byteOffset": 3876,
      "componentType": 5126,
      "count": 323,
      "max": [
        1.0,
        1.0,
        1.0
      ],
      "min": [
        -1.0,
        -1.0,
        -1.0
      ],
      "type": "VEC3"
    },
    {
      "bufferView": 1,
      "componentType": 5126,
      "count": 323,
      "max": [
        1.0,
        1.0
      ],
      "min": [
        0.0,
        0.0
      ],
      "type": "VEC2"
    },
    {
      "bufferView": 0,
      "componentType": 5125,
      "count": 1584,
      "type": "SCALAR"
    },
    {
      "bufferView": 2,
      "byteOffset": 7752,
      "componentType": 5126,
      "count": 17736,
      "max": [
        72.51480865478516,
        47.05622863769531,
        54.367820739746094
      ],
      "min": [
        -105.98202514648438,
        -410.1194152832031,
        -80.87608337402344
      ],
      "type": "VEC3"
    },
    {
      "bufferView": 2,
      "byteOffset": 220584,
      "componentType": 5126,
      "count": 17736,
      "max": [
        1.0,
        1.0,
        1.0
      ],
      "min": [
        -1.0,
        -1.0,
        -1.0
      ],
      "type": "VEC3"
    },
    {
      "bufferView": 1,
      "byteOffset": 2584,
      "componentType": 5126,
      "count": 17736,
      "max": [
        0.994005024433136,
        0.9940051436424255
      ],
      "min": [
        0.0059949662536382675,
        0.005994915962219238
      ],
      "type": "VEC2"
    },
    {
      "bufferView": 1,
      "byteOffset": 144472,
      "componentType": 5126,
      "count": 17736,
      "max": [
        0.994005024433136,
        0.9940051436424255
      ],
      "min": [
        0.0059949662536382675,
        0.005994915962219238
      ],
      "type": "VEC2"
    },
    {
      "bufferView": 0,
      "byteOffset": 6336,
      "componentType": 5125,
      "count": 46938,
      "type": "SCALAR"
    },
    {
      "bufferView": 2,
      "byteOffset": 433416,
      "componentType": 5126,
      "count": 12159,
      "max": [
        592.7066650390625,
        255.393310546875,
        181.34475708007813
      ],
      "min": [
        -577.3870849609375,
        -270.6151123046875,
        -1781.752197265625
      ],
      "type": "VEC3"
    },
    {
      "bufferView": 2,
      "byteOffset": 579324,
      "componentType": 5126,
      "count": 12159,
      "max": [
        0.9998109340667725,
        0.9999555945396423,
        0.9991329312324524
      ],
      "min": [
        -0.9995543956756592,
        -0.999927282333374,
        -0.9999687671661377
      ],
      "type": "VEC3"
    },
    {
      "bufferView": 1,
      "byteOffset": 286360,
      "componentType": 5126,
      "count": 12159,
      "max": [
        0.9926093816757202,
        0.9926034808158875
      ],
      "min": [
        0.007390596438199282,
        0.007396578788757324
      ],
      "type": "VEC2"
    },
    {
      "bufferView": 0,
      "byteOffset": 194088,
      "componentType": 5125,
      "count": 49944,
      "type": "SCALAR"
    },
    {
      "bufferView": 2,
      "byteOffset": 725232,
      "componentType": 5126,
      "count": 12000,
      "max": [
        938.1494750976563,
        572.139404296875,
        244.0894317626953
      ],
      "min": [
        -409.7358703613281,
        -503.2184753417969,
        -551.004150390625
      ],
      "type": "VEC3"
    },
    {
      "bufferView": 2,
      "byteOffset": 869232,
      "componentType": 5126,
      "count": 12000,
      "max": [
        0.9999910593032837,
        1.0,
        0.9995343685150146
      ],
      "min": [
        -0.9992162585258484,
        -0.9994642734527588,
        -0.9973151683807373
      ],
      "type": "VEC3"
    },
    {
      "bufferView": 1,
      "byteOffset": 383632,
      "componentType": 5126,
      "count": 12000,
      "max": [
        0.9952505826950073,
        0.9952302575111389
      ],
      "min": [
        0.004749419167637825,
        0.004769802093505859
      ],
      "type": "VEC2"
    },
    {
      "bufferView": 0,
      "byteOffset": 393864,
      "componentType": 5125,
      "count": 18000,
      "type": "SCALAR"
    },
    {
      "bufferView": 2,
      "byteOffset": 1013232,
      "componentType": 5126,
      "count": 12000,
      "max": [
        495.89727783203125,
        262.9873352050781,
        196.62106323242188
      ],
      "min": [
        -299.1366882324219,
        -557.2054443359375,
        -1191.7431640625
      ],
      "type": "VEC3"
    },
    {
      "bufferView": 2,
      "byteOffset": 1157232,
      "componentType": 5126,
      "count": 12000,
      "max": [
        0.9998847842216492,
        1.0,
        0.9990120530128479
      ],
      "min": [
        -0.999776303768158,
        -0.9992831349372864,
        -0.9991922974586487
      ],
      "type": "VEC3"
    },
    {
      "bufferView": 1,
      "byteOffset": 479632,
      "componentType": 5126,
      "count": 12000,
      "max": [
        0.9952505826950073,
        0.9952302575111389
      ],
      "min": [
        0.004749419167637825,
        0.004769802093505859
      ],
      "type": "VEC2"
    },
    {
      "bufferView": 0,
      "byteOffset": 465864,
      "componentType": 5125,
      "count": 18000,
      "type": "SCALAR"
    },
    {
      "bufferView": 2,
      "byteOffset": 1301232,
      "componentType": 5126,
      "count": 40000,
      "max": [
        1579.8140869140625,
        313.582275390625,
        614.5182495117188
      ],
      "min": [
        -174.12550354003906,
        -364.03448486328125,
        -538.8993530273438
      ],
      "type": "VEC3"
    },
    {
      "bufferView": 2,
      "byteOffset": 1781232,
      "componentType": 5126,
      "count": 40000,
      "max": [
        0.9997864961624146,
        1.0,
        0.9999725222587585
      ],
      "min": [
        -0.9997789263725281,
        -0.9999898076057434,
        -0.9999939203262329
      ],
      "type": "VEC3"
    },
    {
      "bufferView": 1,
      "byteOffset": 575632,
      "componentType": 5126,
      "count": 40000,
      "max": [
        0.9966573119163513,
        0.99665766954422
      ],
      "min": [
        0.003342702053487301,
        0.0033423900604248047
      ],
      "type": "VEC2"
    },
    {
      "bufferView": 0,
      "byteOffset": 537864,
      "componentType": 5125,
      "count": 60000,
      "type": "SCALAR"
    }
  ],
  "asset": {
    "extras": {
      "author": "Bastien Genbrugge (https://sketchfab.com/bastienBGR)",
      "license": "CC-BY-4.0 (http://creativecommons.org/licenses/by/4.0/)",
      "source": "https://sketchfab.com/3d-models/ship-in-clouds-c475323dc7f24e26ba2009c08c8e1941",
      "title": "Ship in Clouds"
    },
    "generator": "Sketchfab-12.66.0",
    "version": "2.0"
  },
  "bufferViews": [
    {
      "buffer": 0,
      "byteLength": 777864,
      "name": "floatBufferViews",
      "target": 34963
    },
    {
      "buffer": 0,
      "byteLength": 895632,
      "byteOffset": 777864,
      "byteStride": 8,
      "name": "floatBufferViews",
      "target": 34962
    },
    {
      "buffer": 0,
      "byteLength": 2261232,
      "byteOffset": 1673496,
      "byteStride": 12,
      "name": "floatBufferViews",
      "target": 34962
    }
  ],
  "buffers": [
    {
      "byteLength": 3934728,
      "uri": "scene.bin"
    }
  ],
  "images": [
    {
      "uri": "textures/material_emissive.jpeg"
    },
    {
      "uri": "textures/Boot_Finaal_emissive.jpeg"
    },
    {
      "uri": "textures/Poly_emissive.jpeg"
    },
    {
      "uri": "textures/Cloud_1_baseColor.png"
    },
    {
      "uri": "textures/Cloud_1_emissive.jpeg"
    },
    {
      "uri": "textures/Cloud_2_emissive.jpeg"
    },
    {
      "uri": "textures/Cloud_3_baseColor.png"
    },
    {
      "uri": "textures/Cloud_3_emissive.jpeg"
    }
  ],
  "materials": [
    {
      "doubleSided": true,
      "emissiveFactor": [
        1.0,
        1.0,
        1.0
      ],
      "emissiveTexture": {
        "index": 0
      },
      "name": "material",
      "pbrMetallicRoughness": {
        "baseColorFactor": [
          0.0,
          0.0,
          0.0,
          1.0
        ],
        "metallicFactor": 0.0,
        "roughnessFactor": 0.6
      }
    },
    {
      "doubleSided": true,
      "emissiveFactor": [
        1.0,
        1.0,
        1.0
      ],
      "emissiveTexture": {
        "index": 1
      },
      "name": "Boot_Finaal",
      "pbrMetallicRoughness": {
        "baseColorFactor": [
          0.0,
          0.0,
          0.0,
          1.0
        ],
        "metallicFactor": 0.0,
        "roughnessFactor": 0.6
      }
    },
    {
      "doubleSided": true,
      "emissiveFactor": [
        1.0,
        1.0,
        1.0
      ],
      "emissiveTexture": {
        "index": 2
      },
      "name": "Poly",
      "pbrMetallicRoughness": {
        "baseColorFactor": [
          0.0,
          0.0,
          0.0,
          1.0
        ],
        "metallicFactor": 0.0,
        "roughnessFactor": 0.6
      }
    },
    {
      "alphaMode": "BLEND",
      "doubleSided": true,
      "emissiveFactor": [
        1.0,
        1.0,
        1.0
      ],
      "emissiveTexture": {
        "index": 4
      },
      "name": "Cloud_1",
      "pbrMetallicRoughness": {
        "baseColorFactor": [
          0.0,
          0.0,
          0.0,
          1.0
        ],
        "baseColorTexture": {
          "index": 3
        },
        "metallicFactor": 0.0,
        "roughnessFactor": 0.6
      }
    },
    {
      "alphaMode": "BLEND",
      "doubleSided": true,
      "emissiveFactor": [
        1.0,
        1.0,
        1.0
      ],
      "emissiveTexture": {
        "index": 5
      },
      "name": "Cloud_2",
      "pbrMetallicRoughness": {
        "baseColorFactor": [
          0.0,
          0.0,
          0.0,
          1.0
        ],
        "baseColorTexture": {
          "index": 3
        },
        "metallicFactor": 0.0,
        "roughnessFactor": 0.6
      }
    },
    {
      "alphaCutoff": 0.4468368902439025,
      "alphaMode": "MASK",
      "doubleSided": true,
      "emissiveFactor": [
        1.0,
        1.0,
        1.0
      ],
      "emissiveTexture": {
        "index": 7
      },
      "name": "Cloud_3",
      "pbrMetallicRoughness": {
        "baseColorFactor": [
          0.0,
          0.0,
          0.0,
          1.0
        ],
        "baseColorTexture": {
          "index": 6
        },
        "metallicFactor": 0.0,
        "roughnessFactor": 0.6
      }
    }
  ],
  "meshes": [
    {
      "name": "Sky_Mat_0",
      "primitives": [
        {
          "attributes": {
            "NORMAL": 1,
            "POSITION": 0,
            "TEXCOORD_0": 2
          },
          "indices": 3,
          "material": 0,
          "mode": 4
        }
      ]
    },
    {
      "name": "Boot_Finaal_1_Boot_Finaal_0",
      "primitives": [
        {
          "attributes": {
            "NORMAL": 5,
            "POSITION": 4,
            "TEXCOORD_0": 6,
            "TEXCOORD_1": 7
          },
          "indices": 8,
          "material": 1,
          "mode": 4
        }
      ]
    },
    {
      "name": "Cloud_Poly_Poly_0",
      "primitives": [
        {
          "attributes": {
            "NORMAL": 10,
            "POSITION": 9,
            "TEXCOORD_0": 11
          },
          "indices": 12,
          "material": 2,
          "mode": 4
        }
      ]
    },
    {
      "name": "Cloud_1_Cloud_1_0",
      "primitives": [
        {
          "attributes": {
            "NORMAL": 14,
            "POSITION": 13,
            "TEXCOORD_0": 15
          },
          "indices": 16,
          "material": 3,
          "mode": 4
        }
      ]
    },
    {
      "name": "Cloud_2_Cloud_2_0",
      "primitives": [
        {
          "attributes": {
            "NORMAL": 18,
            "POSITION": 17,
            "TEXCOORD_0": 19
          },
          "indices": 20,
          "material": 4,
          "mode": 4
        }
      ]
    },
    {
      "name": "Cloud_3_Cloud_3_0",
      "primitives": [
        {
          "attributes": {
            "NORMAL": 22,
            "POSITION": 21,
            "TEXCOORD_0": 23
          },
          "indices": 24,
          "material": 5,
          "mode": 4
        }
      ]
    }
  ],
  "nodes": [
    {
      "children": [
        1
      ],
      "matrix": [
        0.0034276118967682123,
        0.0,
        0.0,
        0.0,
        0.0,
        7.610827294542349e-19,
        -0.0034276118967682123,
        0.0,
        0.0,
        0.0034276118967682123,
        7.610827294542349e-19,
        0.0,
        0.0,
        0.0,
        0.0,
        1.0
      ],
      "name": "Sketchfab_model"
    },
    {
      "children": [
        2
      ],
      "matrix": [
        1.0,
        0.0,
        0.0,
        0.0,
        0.0,
        0.0,
        1.0,
        0.0,
        0.0,
        -1.0,
        0.0,
        0.0,
        0.0,
        0.0,
        0.0,
        1.0
      ],
      "name": "Clouds_5.fbx"
    },
    {
      "children": [
        3,
        5,
        7,
        9,
        11,
        13
      ],
      "name": "RootNode"
    },
    {
      "children": [
        4
      ],
      "matrix": [
        2.220446049250313e-16,
        0.0,
        1.0,
        0.0,
        0.0,
        1.0,
        0.0,
        0.0,
        -1.0,
        0.0,
        2.220446049250313e-16,
        0.0,
        51.63658905029297,
        0.0,
        -817.579345703125,
        1.0
      ],
      "name": "Sky"
    },
    {
      "mesh": 0,
      "name": "Sky_Mat_0"
    },
    {
      "children": [
        6
      ],
      "matrix": [
        0.8251134982782952,
        0.0,
        0.5649670034249379,
        0.0,
        0.0,
        1.0,
        0.0,
        0.0,
        -0.5649670034249379,
        0.0,
        0.8251134982782952,
        0.0,
        7.533713340759277,
        -7.800675392150879,
        -688.4760131835938,
        1.0
      ],
      "name": "Boot_Finaal_1"
    },
    {
      "mesh": 1,
      "name": "Boot_Finaal_1_Boot_Finaal_0"
    },
    {
      "children": [
        8
      ],
      "name": "Cloud_Poly"
    },
    {
      "mesh": 2,
      "name": "Cloud_Poly_Poly_0"
    },
    {
      "children": [
        10
      ],
      "matrix": [
        0.8350071621209925,
        -0.03960145478887209,
        1.245469696132849,
        0.0,
        -1.0756200172908104,
        -0.779843187681974,
        0.6963376918057321,
        0.0,
        0.6291300482491388,
        -1.2807327306681213,
        -0.46251384302030774,
        0.0,
        -102.34154510498047,
        -152.0233612060547,
        -1209.9898681640625,
        1.0
      ],
      "name": "Cloud_1"
    },
    {
      "mesh": 3,
      "name": "Cloud_1_Cloud_1_0"
    },
    {
      "children": [
        12
      ],
      "matrix": [
        0.5757616749659764,
        1.3097842921551486,
        0.450514818473277,
        0.0,
        1.3478261149981419,
        -0.6422246919317705,
        0.14461054180853994,
        0.0,
        0.3191602377637124,
        0.3493029531750052,
        -1.4234198922081398,
        0.0,
        333.05169677734375,
        -63.933231353759766,
        -1541.73291015625,
        1.0
      ],
      "name": "Cloud_2"
    },
    {
      "mesh": 4,
      "name": "Cloud_2_Cloud_2_0"
    },
    {
      "children": [
        14
      ],
      "matrix": [
        -0.308409713230514,
        0.21596946362398664,
        1.1275772583176864,
        0.0,
        -0.01800090764503249,
        1.1665003028730998,
        -0.22834807778720878,
        0.0,
        -1.1479325982030557,
        -0.0763155822039357,
        -0.2993601773847805,
        0.0,
        339.3746643066406,
        -70.9682388305664,
        -1571.745361328125,
        1.0
      ],
      "name": "Cloud_3"
    },
    {
      "mesh": 5,
      "name": "Cloud_3_Cloud_3_0"
    }
  ],
  "samplers": [
    {
      "magFilter": 9729,
      "minFilter": 9987,
      "wrapS": 10497,
      "wrapT": 10497
    }
  ],
  "scene": 0,
  "scenes": [
    {
      "name": "Sketchfab_Scene",
      "nodes": [
        0
      ]
    }
  ],
  "textures": [
    {
      "sampler": 0,
      "source": 0
    },
    {
      "sampler": 0,
      "source": 1
    },
    {
      "sampler": 0,
      "source": 2
    },
    {
      "sampler": 0,
      "source": 3
    },
    {
      "sampler": 0,
      "source": 4
    },
    {
      "sampler": 0,
      "source": 5
    },
    {
      "sampler": 0,
      "source": 6
    },
    {
      "sampler": 0,
      "source": 7
    }
  ]
}
